<svg width="120" height="120" viewBox="0 0 120 120" fill="none" xmlns="http://www.w3.org/2000/svg">
<path d="M85.0633 0H16.1571C12.2801 0 9.12585 3.15422 9.12585 7.03125V30.9375C9.12585 32.232 10.1754 33.2812 11.4696 33.2812C12.7638 33.2812 13.8134 32.232 13.8134 30.9375V7.03125C13.8134 5.73891 14.8648 4.6875 16.1571 4.6875H85.0633C86.3557 4.6875 87.4071 5.73891 87.4071 7.03125V94.2188C87.4071 95.5111 86.3557 96.5625 85.0633 96.5625H16.1571C14.8648 96.5625 13.8134 95.5111 13.8134 94.2188V50.703C13.8134 49.4086 12.7638 48.3593 11.4696 48.3593C10.1754 48.3593 9.12585 49.4086 9.12585 50.703V94.2188C9.12585 98.0958 12.2801 101.25 16.1571 101.25H85.0633C88.9404 101.25 92.0946 98.0958 92.0946 94.2188V7.03125C92.0946 3.15422 88.9404 0 85.0633 0Z" fill="#74889B"/>
<path d="M13.1264 39.7734C12.6907 39.3374 12.086 39.089 11.4696 39.089C10.8532 39.089 10.2485 39.3374 9.81257 39.7734C9.3764 40.2116 9.12585 40.8163 9.12585 41.4304C9.12585 42.0491 9.37664 42.6515 9.81257 43.0898C10.2485 43.5257 10.8532 43.7765 11.4696 43.7765C12.0858 43.7765 12.6905 43.5257 13.1264 43.0898C13.5626 42.6538 13.8134 42.0491 13.8134 41.4304C13.8134 40.814 13.5623 40.2116 13.1264 39.7734Z" fill="#74889B"/>
<path d="M22.5155 106.638C22.0795 106.202 21.4774 105.952 20.8584 105.952C20.242 105.952 19.6373 106.202 19.2016 106.638C18.7655 107.074 18.5147 107.679 18.5147 108.295C18.5147 108.914 18.7657 109.516 19.2016 109.952C19.6373 110.391 20.242 110.639 20.8584 110.639C21.4774 110.639 22.0795 110.391 22.5155 109.952C22.9516 109.516 23.2022 108.914 23.2022 108.295C23.2022 107.679 22.9514 107.074 22.5155 106.638Z" fill="#74889B"/>
<path d="M99.1406 9.38977C97.8464 9.38977 96.7969 10.4391 96.7969 11.7335V103.609C96.7969 104.901 95.7455 105.952 94.4531 105.952H30.2344C28.9402 105.952 27.8906 107.002 27.8906 108.296C27.8906 109.59 28.9402 110.64 30.2344 110.64H94.4531C98.3302 110.64 101.484 107.486 101.484 103.609V11.7335C101.484 10.4391 100.435 9.38977 99.1406 9.38977Z" fill="#74889B"/>
<path d="M108.53 18.75C107.236 18.75 106.187 19.7993 106.187 21.0938V112.969C106.187 114.261 105.135 115.312 103.843 115.312H30.2491C28.9549 115.312 27.9054 116.362 27.9054 117.656C27.9054 118.951 28.9549 120 30.2491 120H103.843C107.72 120 110.874 116.846 110.874 112.969V21.0938C110.874 19.7993 109.825 18.75 108.53 18.75Z" fill="#74889B"/>
<path d="M47.0946 17.3438H24.5946C23.3004 17.3438 22.2509 18.393 22.2509 19.6875V42.1875C22.2509 43.482 23.3004 44.5312 24.5946 44.5312H47.0946C48.3888 44.5312 49.4384 43.482 49.4384 42.1875V19.6875C49.4384 18.393 48.3888 17.3438 47.0946 17.3438ZM44.7509 39.8438H26.9384V22.0312H44.7509V39.8438Z" fill="#74889B"/>
<path d="M39.5534 55.1723C38.6379 54.2573 37.1543 54.2571 36.2386 55.1723L30.0082 61.4027L27.1113 58.5056C26.1961 57.5903 24.7125 57.5906 23.7966 58.5056C22.8813 59.4208 22.8813 60.9049 23.7966 61.8201L28.3509 66.3745C28.7906 66.8139 29.3866 67.061 30.0082 67.061C30.63 67.061 31.2258 66.8139 31.6657 66.3745L39.5534 58.4868C40.4686 57.5716 40.4686 56.0875 39.5534 55.1723Z" fill="#74889B"/>
<path d="M77.9541 58.3594H50.6102C49.316 58.3594 48.2665 59.4087 48.2665 60.7031C48.2665 61.9976 49.316 63.0469 50.6102 63.0469H77.9541C79.2483 63.0469 80.2978 61.9976 80.2978 60.7031C80.2978 59.4087 79.2483 58.3594 77.9541 58.3594Z" fill="#74889B"/>
<path d="M76.6259 17.3438H60.2196C58.9254 17.3438 57.8759 18.393 57.8759 19.6875C57.8759 20.982 58.9254 22.0312 60.2196 22.0312H76.6259C77.9201 22.0312 78.9696 20.982 78.9696 19.6875C78.9696 18.393 77.9201 17.3438 76.6259 17.3438Z" fill="#74889B"/>
<path d="M76.6259 28.5938H60.2196C58.9254 28.5938 57.8759 29.643 57.8759 30.9375C57.8759 32.232 58.9254 33.2812 60.2196 33.2812H76.6259C77.9201 33.2812 78.9696 32.232 78.9696 30.9375C78.9696 29.643 77.9201 28.5938 76.6259 28.5938Z" fill="#74889B"/>
<path d="M76.6259 39.8438H60.2196C58.9254 39.8438 57.8759 40.893 57.8759 42.1875C57.8759 43.482 58.9254 44.5312 60.2196 44.5312H76.6259C77.9201 44.5312 78.9696 43.482 78.9696 42.1875C78.9696 40.893 77.9201 39.8438 76.6259 39.8438Z" fill="#74889B"/>
<path d="M39.5534 73.0709C38.6379 72.1559 37.1543 72.1556 36.2386 73.0709L30.0082 79.3012L27.1113 76.4041C26.1961 75.4889 24.7125 75.4891 23.7966 76.4041C22.8813 77.3194 22.8813 78.8034 23.7966 79.7187L28.3509 84.2731C28.7906 84.7125 29.3866 84.9595 30.0082 84.9595C30.63 84.9595 31.2258 84.7125 31.6657 84.2731L39.5534 76.3854C40.4686 75.4702 40.4686 73.9861 39.5534 73.0709Z" fill="#74889B"/>
<path d="M77.9541 76.1719H50.6102C49.316 76.1719 48.2665 77.2212 48.2665 78.5156C48.2665 79.8101 49.316 80.8594 50.6102 80.8594H77.9541C79.2483 80.8594 80.2978 79.8101 80.2978 78.5156C80.2978 77.2212 79.2483 76.1719 77.9541 76.1719Z" fill="#74889B"/>
</svg>
