<svg width="120" height="120" viewBox="0 0 120 120" fill="none" xmlns="http://www.w3.org/2000/svg">
<path d="M59.9998 0C58.6514 0 57.5578 1.0936 57.5578 2.44199C57.5578 3.79037 58.6514 4.88397 59.9998 4.88397C90.3906 4.88397 115.116 29.6091 115.116 60C115.116 90.3909 90.3906 115.116 59.9998 115.116C29.609 115.116 4.88396 90.3913 4.88396 60C4.88396 39.3229 16.2969 20.5611 34.6692 11.0361C35.8665 10.4155 36.3338 8.94174 35.7131 7.74435C35.0924 6.54696 33.6183 6.07973 32.4213 6.7004C12.4232 17.0683 0 37.4918 0 60C0 93.0844 26.9159 120 59.9998 120C93.0837 120 120 93.084 120 60C120 26.916 93.0841 0 59.9998 0Z" fill="#74889B"/>
<path d="M83.5209 29.0906C76.7135 23.9026 68.5801 21.1606 59.9998 21.1606C38.5837 21.1606 21.1602 38.5842 21.1602 60.0004C21.1602 81.4166 38.5837 98.8402 59.9998 98.8402C70.3741 98.8402 80.1278 94.8004 87.4635 87.4642C88.4171 86.5106 88.4171 84.9644 87.4635 84.0108C86.5099 83.0572 84.9633 83.0572 84.0101 84.0108C77.5967 90.4243 69.0697 93.9562 59.9998 93.9562C41.2768 93.9562 26.0441 78.7239 26.0441 60.0004C26.0441 41.2769 41.2764 26.0446 59.9998 26.0446C75.0155 26.0446 88.4256 36.1036 92.6108 50.5068C92.9869 51.8019 94.3417 52.5463 95.6372 52.1702C96.9323 51.7937 97.6771 50.4388 97.3006 49.1438C95.0019 41.2321 90.1082 34.1101 83.5209 29.0906Z" fill="#74889B"/>
<path d="M88.6328 52.6094C87.6788 51.6558 86.1326 51.6558 85.1794 52.6094C84.2258 53.563 84.2258 55.1091 85.1794 56.0627L94.3653 65.2491C94.8232 65.707 95.4443 65.9642 96.0922 65.9642C96.7402 65.9642 97.3612 65.707 97.8191 65.2491L107.005 56.0627C107.959 55.1091 107.959 53.563 107.005 52.6094C106.051 51.6558 104.505 51.6558 103.552 52.6094L96.0922 60.0688L88.6328 52.6094Z" fill="#74889B"/>
</svg>
