<svg width="120" height="118" viewBox="0 0 120 118" fill="none" xmlns="http://www.w3.org/2000/svg">
<path d="M21 12C16.038 12 12 16.038 12 21C12 25.962 16.038 30 21 30C25.962 30 30 25.962 30 21C30 16.038 25.962 12 21 12ZM21 26C18.244 26 16 23.758 16 21C16 18.242 18.244 16 21 16C23.756 16 26 18.242 26 21C26 23.758 23.756 26 21 26Z" fill="#74889B"/>
<path d="M100 20C101.105 20 102 19.1046 102 18C102 16.8954 101.105 16 100 16C98.8954 16 98 16.8954 98 18C98 19.1046 98.8954 20 100 20Z" fill="#74889B"/>
<path d="M92 20C93.1046 20 94 19.1046 94 18C94 16.8954 93.1046 16 92 16C90.8954 16 90 16.8954 90 18C90 19.1046 90.8954 20 92 20Z" fill="#74889B"/>
<path d="M104 26C105.105 26 106 25.1046 106 24C106 22.8954 105.105 22 104 22C102.895 22 102 22.8954 102 24C102 25.1046 102.895 26 104 26Z" fill="#74889B"/>
<path d="M96 26C97.1046 26 98 25.1046 98 24C98 22.8954 97.1046 22 96 22C94.8954 22 94 22.8954 94 24C94 25.1046 94.8954 26 96 26Z" fill="#74889B"/>
<path d="M84 20C85.1046 20 86 19.1046 86 18C86 16.8954 85.1046 16 84 16C82.8954 16 82 16.8954 82 18C82 19.1046 82.8954 20 84 20Z" fill="#74889B"/>
<path d="M88 26C89.1046 26 90 25.1046 90 24C90 22.8954 89.1046 22 88 22C86.8954 22 86 22.8954 86 24C86 25.1046 86.8954 26 88 26Z" fill="#74889B"/>
<path d="M76 20C77.1046 20 78 19.1046 78 18C78 16.8954 77.1046 16 76 16C74.8954 16 74 16.8954 74 18C74 19.1046 74.8954 20 76 20Z" fill="#74889B"/>
<path d="M80 26C81.1046 26 82 25.1046 82 24C82 22.8954 81.1046 22 80 22C78.8954 22 78 22.8954 78 24C78 25.1046 78.8954 26 80 26Z" fill="#74889B"/>
<path d="M68 20C69.1046 20 70 19.1046 70 18C70 16.8954 69.1046 16 68 16C66.8954 16 66 16.8954 66 18C66 19.1046 66.8954 20 68 20Z" fill="#74889B"/>
<path d="M72 26C73.1046 26 74 25.1046 74 24C74 22.8954 73.1046 22 72 22C70.8954 22 70 22.8954 70 24C70 25.1046 70.8954 26 72 26Z" fill="#74889B"/>
<path d="M120 32.784V9.216C120 4.134 115.866 0 110.784 0H9.216C4.134 0 0 4.134 0 9.216V32.782C0 35.72 1.406 38.31 3.554 39.998C1.406 41.688 0 44.28 0 47.216V70.782C0 73.72 1.406 76.31 3.554 77.998C1.406 79.688 0 82.28 0 85.216V108.782C0 113.866 4.134 118 9.216 118H110.782C115.864 118 119.998 113.866 119.998 108.784V85.216C119.998 82.278 118.592 79.688 116.444 78C118.594 76.312 120 73.72 120 70.784V47.216C120 44.278 118.594 41.688 116.446 40C118.594 38.312 120 35.72 120 32.784ZM116 85.216V108.782C116 111.658 113.66 113.998 110.784 113.998H9.216C6.34 114 4 111.66 4 108.784V85.216C4 82.34 6.34 80 9.216 80H110.782C113.66 80 116 82.34 116 85.216ZM116 47.216V70.782C116 73.658 113.66 75.998 110.784 75.998H9.216C6.34 76 4 73.66 4 70.784V47.216C4 44.34 6.34 42 9.216 42H110.782C113.66 42 116 44.34 116 47.216ZM9.216 38C6.34 38 4 35.66 4 32.784V9.216C4 6.34 6.34 4 9.216 4H110.782C113.66 4 116 6.34 116 9.216V32.782C116 35.658 113.66 37.998 110.784 37.998H9.216V38Z" fill="#74889B"/>
<path d="M21 68C25.962 68 30 63.962 30 59C30 54.038 25.962 50 21 50C16.038 50 12 54.038 12 59C12 63.962 16.038 68 21 68ZM21 54C23.756 54 26 56.242 26 59C26 61.758 23.756 64 21 64C18.244 64 16 61.758 16 59C16 56.242 18.244 54 21 54Z" fill="#74889B"/>
<path d="M100 58C101.105 58 102 57.1046 102 56C102 54.8954 101.105 54 100 54C98.8954 54 98 54.8954 98 56C98 57.1046 98.8954 58 100 58Z" fill="#74889B"/>
<path d="M92 58C93.1046 58 94 57.1046 94 56C94 54.8954 93.1046 54 92 54C90.8954 54 90 54.8954 90 56C90 57.1046 90.8954 58 92 58Z" fill="#74889B"/>
<path d="M104 64C105.105 64 106 63.1046 106 62C106 60.8954 105.105 60 104 60C102.895 60 102 60.8954 102 62C102 63.1046 102.895 64 104 64Z" fill="#74889B"/>
<path d="M96 64C97.1046 64 98 63.1046 98 62C98 60.8954 97.1046 60 96 60C94.8954 60 94 60.8954 94 62C94 63.1046 94.8954 64 96 64Z" fill="#74889B"/>
<path d="M84 58C85.1046 58 86 57.1046 86 56C86 54.8954 85.1046 54 84 54C82.8954 54 82 54.8954 82 56C82 57.1046 82.8954 58 84 58Z" fill="#74889B"/>
<path d="M88 64C89.1046 64 90 63.1046 90 62C90 60.8954 89.1046 60 88 60C86.8954 60 86 60.8954 86 62C86 63.1046 86.8954 64 88 64Z" fill="#74889B"/>
<path d="M76 58C77.1046 58 78 57.1046 78 56C78 54.8954 77.1046 54 76 54C74.8954 54 74 54.8954 74 56C74 57.1046 74.8954 58 76 58Z" fill="#74889B"/>
<path d="M80 64C81.1046 64 82 63.1046 82 62C82 60.8954 81.1046 60 80 60C78.8954 60 78 60.8954 78 62C78 63.1046 78.8954 64 80 64Z" fill="#74889B"/>
<path d="M68 58C69.1046 58 70 57.1046 70 56C70 54.8954 69.1046 54 68 54C66.8954 54 66 54.8954 66 56C66 57.1046 66.8954 58 68 58Z" fill="#74889B"/>
<path d="M72 64C73.1046 64 74 63.1046 74 62C74 60.8954 73.1046 60 72 60C70.8954 60 70 60.8954 70 62C70 63.1046 70.8954 64 72 64Z" fill="#74889B"/>
<path d="M21 106C25.962 106 30 101.962 30 97C30 92.038 25.962 88 21 88C16.038 88 12 92.038 12 97C12 101.962 16.038 106 21 106ZM21 92C23.756 92 26 94.242 26 97C26 99.758 23.756 102 21 102C18.244 102 16 99.758 16 97C16 94.242 18.244 92 21 92Z" fill="#74889B"/>
<path d="M100 96C101.105 96 102 95.1046 102 94C102 92.8954 101.105 92 100 92C98.8954 92 98 92.8954 98 94C98 95.1046 98.8954 96 100 96Z" fill="#74889B"/>
<path d="M92 96C93.1046 96 94 95.1046 94 94C94 92.8954 93.1046 92 92 92C90.8954 92 90 92.8954 90 94C90 95.1046 90.8954 96 92 96Z" fill="#74889B"/>
<path d="M104 102C105.105 102 106 101.105 106 100C106 98.8954 105.105 98 104 98C102.895 98 102 98.8954 102 100C102 101.105 102.895 102 104 102Z" fill="#74889B"/>
<path d="M96 102C97.1046 102 98 101.105 98 100C98 98.8954 97.1046 98 96 98C94.8954 98 94 98.8954 94 100C94 101.105 94.8954 102 96 102Z" fill="#74889B"/>
<path d="M84 96C85.1046 96 86 95.1046 86 94C86 92.8954 85.1046 92 84 92C82.8954 92 82 92.8954 82 94C82 95.1046 82.8954 96 84 96Z" fill="#74889B"/>
<path d="M88 102C89.1046 102 90 101.105 90 100C90 98.8954 89.1046 98 88 98C86.8954 98 86 98.8954 86 100C86 101.105 86.8954 102 88 102Z" fill="#74889B"/>
<path d="M76 96C77.1046 96 78 95.1046 78 94C78 92.8954 77.1046 92 76 92C74.8954 92 74 92.8954 74 94C74 95.1046 74.8954 96 76 96Z" fill="#74889B"/>
<path d="M80 102C81.1046 102 82 101.105 82 100C82 98.8954 81.1046 98 80 98C78.8954 98 78 98.8954 78 100C78 101.105 78.8954 102 80 102Z" fill="#74889B"/>
<path d="M68 96C69.1046 96 70 95.1046 70 94C70 92.8954 69.1046 92 68 92C66.8954 92 66 92.8954 66 94C66 95.1046 66.8954 96 68 96Z" fill="#74889B"/>
<path d="M72 102C73.1046 102 74 101.105 74 100C74 98.8954 73.1046 98 72 98C70.8954 98 70 98.8954 70 100C70 101.105 70.8954 102 72 102Z" fill="#74889B"/>
</svg>
