<svg width="120" height="116" viewBox="0 0 120 116" fill="none" xmlns="http://www.w3.org/2000/svg">
<path d="M112.739 48.1946H88.9667C87.7605 48.1946 86.7855 49.1696 86.7855 50.3757C86.7855 51.5819 87.7605 52.5569 88.9667 52.5569H108.819L115.143 111.448H4.94683L12.3693 52.5569H32.2569C33.4631 52.5569 34.4381 51.5819 34.4381 50.3757C34.4381 49.1696 33.4631 48.1946 32.2569 48.1946H8.52173L0 115.81H120L112.739 48.1946Z" fill="#74889B"/>
<path d="M58.1362 82.9947C57.8156 83.1845 57.4731 83.3525 57.1656 83.5509C56.6857 83.8607 56.2168 84.1857 55.7566 84.5215C54.786 85.2348 54.5766 86.6002 55.2876 87.5708C55.7151 88.1532 56.3782 88.4607 57.05 88.4607C57.4971 88.4607 57.9486 88.3233 58.339 88.0397C58.7273 87.754 59.1221 87.4792 59.5343 87.2131C60.2345 86.7594 60.9782 86.3341 61.746 85.9458C62.7668 85.4289 63.1812 84.2206 62.7537 83.178C62.7711 83.1605 62.7929 83.1474 62.8082 83.13C66.7539 78.9509 80.0501 63.2903 85.5554 37.1994C86.6721 31.908 86.9229 26.8303 86.3013 22.1081C84.4255 7.76708 75.5156 0.185425 60.5355 0.185425C45.5597 0.185425 36.6497 7.76708 34.7696 22.1081C34.1502 26.8325 34.401 31.9102 35.5177 37.1994C40.9684 63.0373 54.0553 78.6368 58.1362 82.9947ZM39.0948 22.6774C40.6936 10.4804 47.7081 4.54989 60.5376 4.54989C73.3693 4.54989 80.3817 10.4804 81.9783 22.6774C82.5345 26.9088 82.3011 31.4958 81.289 36.303C76.34 59.7568 64.54 74.6388 60.5376 79.1538C56.5309 74.6344 44.7331 59.7459 39.7862 36.303C38.772 31.4958 38.5408 26.911 39.0948 22.6774Z" fill="#74889B"/>
<path d="M60.5377 41.4592C69.3735 41.4592 76.5604 34.2723 76.5604 25.4365C76.5604 16.6007 69.3735 9.41382 60.5377 9.41382C51.7019 9.41382 44.515 16.6007 44.515 25.4365C44.515 34.2723 51.7019 41.4592 60.5377 41.4592ZM60.5377 13.7783C66.9655 13.7783 72.1981 19.0087 72.1981 25.4387C72.1981 31.8687 66.9677 37.0991 60.5377 37.0991C54.1077 37.0991 48.8773 31.8687 48.8773 25.4387C48.8773 19.0087 54.1099 13.7783 60.5377 13.7783Z" fill="#74889B"/>
<path d="M68.549 79.073C67.3712 79.3217 66.6209 80.482 66.8717 81.662C67.0898 82.6872 67.995 83.3873 69.0027 83.3873C69.1532 83.3873 69.308 83.372 69.4607 83.3393C70.7389 83.0689 72.1239 82.8398 73.5743 82.6566C74.7696 82.5105 75.6203 81.4199 75.4698 80.2247C75.3214 79.0272 74.2418 78.1635 73.0378 78.3292C71.4608 78.5234 69.9493 78.7742 68.549 79.073Z" fill="#74889B"/>
<path d="M79.8277 79.9586C79.8756 81.1299 80.8441 82.046 82.0044 82.046C82.0372 82.046 82.0677 82.046 82.1004 82.0438L86.4649 81.8627C87.6667 81.8082 88.6002 80.7874 88.5435 79.5856C88.489 78.3794 87.3679 77.4394 86.2664 77.5048L81.9128 77.6858C80.7088 77.736 79.7753 78.7524 79.8277 79.9586Z" fill="#74889B"/>
<path d="M48.9296 89.9941C47.8085 90.8404 46.6503 91.6539 45.4834 92.4086C44.4735 93.0651 44.1856 94.4153 44.8421 95.4273C45.2587 96.0708 45.9611 96.4197 46.6743 96.4197C47.0822 96.4197 47.4922 96.3063 47.8608 96.0686C49.1106 95.2572 50.3561 94.3847 51.5579 93.4774C52.5176 92.7511 52.7095 91.3835 51.9854 90.4216C51.2591 89.4684 49.8958 89.2678 48.9296 89.9941Z" fill="#74889B"/>
<path d="M97.5408 75.6115C96.8036 76.1285 95.846 76.5036 94.605 76.7588C93.425 77.0009 92.6659 78.1569 92.9102 79.3369C93.124 80.3686 94.0313 81.0775 95.0456 81.0775C95.1917 81.0775 95.34 81.0622 95.4883 81.0317C97.3249 80.6522 98.8168 80.0458 100.06 79.1712L100.352 78.9574C101.312 78.2289 101.502 76.8613 100.775 75.9016C100.047 74.9419 98.6815 74.7544 97.7196 75.4785L97.5408 75.6115Z" fill="#74889B"/>
<path d="M19.325 92.6658C19.6413 91.5033 18.952 90.3058 17.7895 89.9918C16.6356 89.6668 15.4295 90.3604 15.1154 91.5273C14.8406 92.5393 14.677 93.5732 14.6246 94.5918C14.6137 94.8426 14.6072 95.0956 14.6072 95.3617C14.6094 95.7893 14.629 96.2168 14.6704 96.6421C14.786 97.7654 15.7326 98.6008 16.8385 98.6008C16.9105 98.6008 16.9846 98.5964 17.0631 98.5898C18.2606 98.4655 19.1331 97.3968 19.0131 96.1971C18.9826 95.9114 18.9716 95.6213 18.9695 95.3465C18.9695 95.1654 18.976 94.9844 18.9847 94.8056C19.0196 94.0989 19.1331 93.3769 19.325 92.6658Z" fill="#74889B"/>
<path d="M97.4928 58.6575C95.761 58.4263 93.9942 58.5681 92.2886 59.0523C91.1282 59.3773 90.4542 60.5834 90.7836 61.7416C91.0541 62.7035 91.9287 63.3317 92.8797 63.3317C93.0782 63.3317 93.2766 63.3055 93.473 63.2488C94.6071 62.9303 95.7741 62.83 96.9083 62.9827C98.1341 63.1354 99.2028 62.3044 99.362 61.1135C99.5235 59.916 98.6859 58.8189 97.4928 58.6575Z" fill="#74889B"/>
<path d="M101.833 69.4629C101.478 70.6124 102.123 71.836 103.273 72.1894C103.489 72.257 103.702 72.2875 103.916 72.2875C104.85 72.2875 105.711 71.6877 105.999 70.7498C106.215 70.0562 106.348 69.3517 106.398 68.6494C106.409 68.4683 106.416 68.2851 106.416 68.1041C106.416 67.0833 106.228 66.0604 105.86 65.0679C105.441 63.9359 104.178 63.3645 103.057 63.7811C101.925 64.1998 101.351 65.4562 101.77 66.5838C101.958 67.0899 102.054 67.6024 102.054 68.1019L102.047 68.3571C102.021 68.7192 101.951 69.0812 101.833 69.4629Z" fill="#74889B"/>
<path d="M38.1285 96.5091C36.8504 97.1089 35.5482 97.6651 34.2592 98.1646C33.1359 98.5964 32.5775 99.8593 33.0116 100.985C33.3453 101.849 34.1698 102.381 35.0466 102.381C35.3083 102.381 35.5744 102.335 35.8318 102.235C37.2168 101.7 38.6128 101.103 39.9825 100.461C41.0731 99.9509 41.542 98.651 41.0295 97.5604C40.5213 96.4676 39.2257 95.9943 38.1285 96.5091Z" fill="#74889B"/>
<path d="M22.2499 87.429C22.601 87.429 22.9588 87.3439 23.2925 87.1629C23.9206 86.8205 24.5903 86.6067 25.2795 86.5326C25.5739 86.4977 25.8749 86.4977 26.165 86.5369C27.393 86.6961 28.4552 85.8542 28.6123 84.6611C28.7693 83.4659 27.9296 82.3709 26.7365 82.2139C26.0865 82.1288 25.4256 82.1245 24.7931 82.1964C23.5411 82.3339 22.3328 82.7177 21.2029 83.3328C20.1451 83.9108 19.7547 85.2326 20.3327 86.2905C20.7296 87.019 21.4778 87.429 22.2499 87.429Z" fill="#74889B"/>
<path d="M21.7963 104.531C22.2674 104.653 22.7473 104.745 23.2228 104.802C23.7811 104.869 24.3395 104.904 24.9001 104.904C25.5828 104.904 26.2676 104.856 26.9503 104.769C28.1456 104.619 28.9941 103.528 28.8414 102.333C28.6887 101.137 27.6047 100.296 26.4051 100.442C25.5239 100.555 24.634 100.581 23.7528 100.474C23.4649 100.437 23.177 100.383 22.8934 100.311C21.7265 99.9989 20.5378 100.706 20.2324 101.873C19.9336 103.039 20.6316 104.23 21.7963 104.531Z" fill="#74889B"/>
</svg>
