<svg width="120" height="112" viewBox="0 0 120 112" fill="none" xmlns="http://www.w3.org/2000/svg">
<path d="M2.22222 15.5556H8.88889V24.4444C8.88889 25.6733 9.88222 26.6667 11.1111 26.6667H37.7778C39.0067 26.6667 40 25.6733 40 24.4444V15.5556H117.778C119.007 15.5556 120 14.5622 120 13.3333C120 12.1044 119.007 11.1111 117.778 11.1111H40V2.22222C40 0.993333 39.0067 0 37.7778 0H11.1111C9.88222 0 8.88889 0.993333 8.88889 2.22222V11.1111H2.22222C0.993333 11.1111 0 12.1044 0 13.3333C0 14.5622 0.993333 15.5556 2.22222 15.5556ZM13.3333 4.44444H35.5556V22.2222H13.3333V4.44444Z" fill="#74889B"/>
<path d="M117.778 53.3333H75.5556V44.4444C75.5556 43.2155 74.5622 42.2222 73.3333 42.2222H46.6667C45.4378 42.2222 44.4444 43.2155 44.4444 44.4444V53.3333H2.22222C0.993333 53.3333 0 54.3266 0 55.5555C0 56.7844 0.993333 57.7777 2.22222 57.7777H44.4444V66.6666C44.4444 67.8955 45.4378 68.8888 46.6667 68.8888H73.3333C74.5622 68.8888 75.5556 67.8955 75.5556 66.6666V57.7777H117.778C119.007 57.7777 120 56.7844 120 55.5555C120 54.3266 119.007 53.3333 117.778 53.3333ZM71.1111 64.4444H48.8889V46.6666H71.1111V64.4444Z" fill="#74889B"/>
<path d="M117.778 95.5554H111.111V86.6666C111.111 85.4377 110.118 84.4443 108.889 84.4443H82.2222C80.9933 84.4443 80 85.4377 80 86.6666V95.5554H2.22222C0.993333 95.5554 0 96.5488 0 97.7777C0 99.0066 0.993333 99.9999 2.22222 99.9999H80V108.889C80 110.118 80.9933 111.111 82.2222 111.111H108.889C110.118 111.111 111.111 110.118 111.111 108.889V99.9999H117.778C119.007 99.9999 120 99.0066 120 97.7777C120 96.5488 119.007 95.5554 117.778 95.5554ZM106.667 106.667H84.4445V88.8888H106.667V106.667Z" fill="#74889B"/>
</svg>
