<svg width="120" height="120" viewBox="0 0 120 120" fill="none" xmlns="http://www.w3.org/2000/svg">
<path d="M108.281 10.3125H97.1093V7.03125C97.1093 3.15422 93.9551 0 90.078 0C86.201 0 83.0468 3.15422 83.0468 7.03125V10.3125H43.6718V7.03125C43.6718 3.15422 40.5176 0 36.6405 0C32.7635 0 29.6093 3.15422 29.6093 7.03125V10.3992C29.4101 10.3441 29.2013 10.3125 28.9845 10.3125H19.646C13.1843 10.3125 7.92727 15.5695 7.92727 22.0312V61.953C7.92727 63.2475 8.9768 64.2968 10.271 64.2968C11.5652 64.2968 12.6148 63.2475 12.6148 61.953V34.4531H97.1093C98.4035 34.4531 99.453 33.4038 99.453 32.1094C99.453 30.8149 98.4035 29.7656 97.1093 29.7656H12.6148V22.0312C12.6148 18.1542 15.769 15 19.646 15H28.9845C29.2013 15 29.4101 14.9681 29.6093 14.9133V17.9297C29.6093 21.8067 32.7635 24.9609 36.6405 24.9609C40.5176 24.9609 43.6718 21.8067 43.6718 17.9297V15H83.0468V17.9297C83.0468 21.8067 86.201 24.9609 90.078 24.9609C93.9551 24.9609 97.1093 21.8067 97.1093 17.9297V15H108.281C112.158 15 115.312 18.1542 115.312 22.0312V111.092C115.312 113.419 113.419 115.312 111.092 115.312C108.765 115.312 106.872 113.419 106.872 111.092V105.029C106.872 103.735 105.823 102.686 104.528 102.686H77.2657C75.9715 102.686 74.922 103.735 74.922 105.029C74.922 106.324 75.9715 107.373 77.2657 107.373H102.185V111.092C102.185 112.618 102.571 114.056 103.25 115.312H8.90625C6.58008 115.312 4.6875 113.42 4.6875 111.094V107.373H57.1465C58.4407 107.373 59.4902 106.324 59.4902 105.029C59.4902 103.735 58.4407 102.686 57.1465 102.686H33.7287C37.8241 99.1584 40.4248 93.9413 40.4248 88.125C40.4248 77.5277 31.8033 68.9062 21.206 68.9062C10.6087 68.9062 1.98727 77.5277 1.98727 88.125C1.98727 93.9413 4.58789 99.1584 8.68336 102.686H2.34375C1.04953 102.686 0 103.735 0 105.029V111.094C0 116.005 3.99539 120 8.90625 120H111.092C116.004 120 120 116.004 120 111.092V22.0312C120 15.5695 114.743 10.3125 108.281 10.3125ZM38.9843 17.9297C38.9843 19.222 37.9329 20.2734 36.6405 20.2734C35.3482 20.2734 34.2968 19.222 34.2968 17.9297V7.03125C34.2968 5.73891 35.3482 4.6875 36.6405 4.6875C37.9329 4.6875 38.9843 5.73891 38.9843 7.03125V17.9297ZM92.4218 17.9297C92.4218 19.222 91.3704 20.2734 90.078 20.2734C88.7857 20.2734 87.7343 19.222 87.7343 17.9297V7.03125C87.7343 5.73891 88.7857 4.6875 90.078 4.6875C91.3704 4.6875 92.4218 5.73891 92.4218 7.03125V17.9297ZM6.67477 88.125C6.67477 80.1124 13.1934 73.5938 21.206 73.5938C29.2186 73.5938 35.7373 80.1124 35.7373 88.125C35.7373 96.1376 29.2186 102.656 21.206 102.656C13.1934 102.656 6.67477 96.1376 6.67477 88.125Z" fill="#74889B"/>
<path d="M109.76 30.4523C109.324 30.0164 108.72 29.7656 108.103 29.7656C107.487 29.7656 106.882 30.0164 106.446 30.4523C106.01 30.8883 105.759 31.493 105.759 32.1094C105.759 32.7258 106.01 33.3305 106.446 33.7664C106.882 34.2023 107.487 34.4531 108.103 34.4531C108.72 34.4531 109.324 34.2023 109.76 33.7664C110.196 33.3305 110.447 32.7258 110.447 32.1094C110.447 31.493 110.196 30.8883 109.76 30.4523Z" fill="#74889B"/>
<path d="M69.9959 103.371C69.5602 102.935 68.9555 102.687 68.3391 102.687C67.7227 102.687 67.118 102.935 66.6821 103.371C66.2461 103.809 65.9954 104.412 65.9954 105.028C65.9954 105.647 66.2459 106.249 66.6821 106.688C67.118 107.123 67.7227 107.372 68.3391 107.372C68.9555 107.372 69.5602 107.123 69.9959 106.688C70.4318 106.249 70.6829 105.645 70.6829 105.028C70.6829 104.412 70.4321 103.809 69.9959 103.371Z" fill="#74889B"/>
<path d="M53.0262 71.25C48.1153 71.25 44.1199 75.2454 44.1199 80.1562C44.1199 85.0671 48.1153 89.0625 53.0262 89.0625C57.937 89.0625 61.9324 85.0671 61.9324 80.1562C61.9324 75.2454 57.937 71.25 53.0262 71.25ZM53.0262 84.375C50.7 84.375 48.8074 82.4824 48.8074 80.1562C48.8074 77.8301 50.7 75.9375 53.0262 75.9375C55.3524 75.9375 57.2449 77.8301 57.2449 80.1562C57.2449 82.4824 55.3524 84.375 53.0262 84.375Z" fill="#74889B"/>
<path d="M74.9011 71.25C69.9903 71.25 65.9949 75.2454 65.9949 80.1562C65.9949 85.0671 69.9903 89.0625 74.9011 89.0625C79.812 89.0625 83.8074 85.0671 83.8074 80.1562C83.8074 75.2454 79.812 71.25 74.9011 71.25ZM74.9011 84.375C72.575 84.375 70.6824 82.4824 70.6824 80.1562C70.6824 77.8301 72.575 75.9375 74.9011 75.9375C77.2273 75.9375 79.1199 77.8301 79.1199 80.1562C79.1199 82.4824 77.2273 84.375 74.9011 84.375Z" fill="#74889B"/>
<path d="M96.7762 71.25C91.8654 71.25 87.87 75.2454 87.87 80.1562C87.87 85.0671 91.8654 89.0625 96.7762 89.0625C101.687 89.0625 105.682 85.0671 105.682 80.1562C105.682 75.2454 101.687 71.25 96.7762 71.25ZM96.7762 84.375C94.4501 84.375 92.5575 82.4824 92.5575 80.1562C92.5575 77.8301 94.4501 75.9375 96.7762 75.9375C99.1024 75.9375 100.995 77.8301 100.995 80.1562C100.995 82.4824 99.1024 84.375 96.7762 84.375Z" fill="#74889B"/>
<path d="M31.1512 46.875C26.2404 46.875 22.245 50.8704 22.245 55.7812C22.245 60.6921 26.2404 64.6875 31.1512 64.6875C36.0621 64.6875 40.0575 60.6921 40.0575 55.7812C40.0575 50.8704 36.0621 46.875 31.1512 46.875ZM31.1512 60C28.8251 60 26.9325 58.1074 26.9325 55.7812C26.9325 53.4551 28.8251 51.5625 31.1512 51.5625C33.4774 51.5625 35.37 53.4551 35.37 55.7812C35.37 58.1074 33.4774 60 31.1512 60Z" fill="#74889B"/>
<path d="M74.9011 46.875C69.9903 46.875 65.9949 50.8704 65.9949 55.7812C65.9949 60.6921 69.9903 64.6875 74.9011 64.6875C79.812 64.6875 83.8074 60.6921 83.8074 55.7812C83.8074 50.8704 79.812 46.875 74.9011 46.875ZM74.9011 60C72.575 60 70.6824 58.1074 70.6824 55.7812C70.6824 53.4551 72.575 51.5625 74.9011 51.5625C77.2273 51.5625 79.1199 53.4551 79.1199 55.7812C79.1199 58.1074 77.2273 60 74.9011 60Z" fill="#74889B"/>
<path d="M96.7762 46.875C91.8654 46.875 87.87 50.8704 87.87 55.7812C87.87 60.6921 91.8654 64.6875 96.7762 64.6875C101.687 64.6875 105.682 60.6921 105.682 55.7812C105.682 50.8704 101.687 46.875 96.7762 46.875ZM96.7762 60C94.4501 60 92.5575 58.1074 92.5575 55.7812C92.5575 53.4551 94.4501 51.5625 96.7762 51.5625C99.1024 51.5625 100.995 53.4551 100.995 55.7812C100.995 58.1074 99.1024 60 96.7762 60Z" fill="#74889B"/>
<path d="M53.0262 46.875C48.1153 46.875 44.1199 50.8704 44.1199 55.7812C44.1199 60.6921 48.1153 64.6875 53.0262 64.6875C57.937 64.6875 61.9324 60.6921 61.9324 55.7812C61.9324 50.8704 57.937 46.875 53.0262 46.875ZM53.0262 60C50.7 60 48.8074 58.1074 48.8074 55.7812C48.8074 53.4551 50.7 51.5625 53.0262 51.5625C55.3524 51.5625 57.2449 53.4551 57.2449 55.7812C57.2449 58.1074 55.3524 60 53.0262 60Z" fill="#74889B"/>
<path d="M29.5556 82.413C28.6402 81.4978 27.1566 81.4978 26.2409 82.413L18.6082 90.0459L15.9998 87.4375C15.0844 86.5223 13.6008 86.5223 12.6851 87.4375C11.7698 88.3528 11.7698 89.8368 12.6851 90.7523L16.9509 95.0177C17.3906 95.4571 17.9866 95.7042 18.6082 95.7042C19.2298 95.7042 19.8258 95.4571 20.2655 95.0177L29.5556 85.7275C30.4709 84.8123 30.4709 83.3282 29.5556 82.413Z" fill="#74889B"/>
</svg>
