<svg width="120" height="120" viewBox="0 0 120 120" fill="none" xmlns="http://www.w3.org/2000/svg">
<path d="M119.967 54.845C119.952 54.6175 119.91 54.4 119.835 54.185C119.807 54.105 119.788 54.0275 119.753 53.95C119.632 53.69 119.48 53.445 119.27 53.2375C119.268 53.235 119.268 53.235 119.268 53.235L105 38.965V25C105 24.945 104.972 24.8975 104.967 24.8425C104.952 24.6225 104.91 24.41 104.84 24.2C104.812 24.12 104.793 24.0425 104.755 23.965C104.632 23.7 104.48 23.4475 104.265 23.2325L81.765 0.7325C81.55 0.5175 81.2975 0.3625 81.03 0.2425C80.955 0.2075 80.88 0.1875 80.8025 0.1625C80.59 0.0875 80.3725 0.045 80.145 0.0325C80.0975 0.025 80.0525 0 80 0H17.5C16.12 0 15 1.12 15 2.5V38.965L0.7325 53.2325C0.7325 53.2325 0.73 53.235 0.7275 53.2375C0.5175 53.4475 0.3675 53.6925 0.2475 53.95C0.2125 54.0275 0.1925 54.105 0.165 54.185C0.09 54.4 0.045 54.6175 0.0325 54.845C0.0275 54.9 0 54.945 0 55V102.5C0 103.88 1.12 105 2.5 105H15V117.5C15 118.88 16.12 120 17.5 120H102.5C103.88 120 105 118.88 105 117.5V105H117.5C118.88 105 120 103.88 120 102.5V55C120 54.945 119.972 54.9 119.967 54.845ZM111.465 52.5H105V46.035L111.465 52.5ZM96.465 22.5H82.5V8.535L96.465 22.5ZM20 5H77.5V25C77.5 26.38 78.62 27.5 80 27.5H100V40V52.5H20V40V5ZM15 46.035V52.5H8.535L15 46.035ZM100 115H20V105H100V115ZM115 100H5V57.5H17.5H102.5H115V100Z" fill="#74889B"/>
<path d="M58.555 69.7125C58.9225 69.3725 59.335 69.125 59.7875 68.9675C60.24 68.8125 60.7075 68.735 61.19 68.735C62.8625 68.735 64.25 69.4 65.355 70.7325L68.16 67.0775C67.3375 66.115 66.325 65.385 65.1225 64.8875C63.9175 64.3925 62.5525 64.145 61.0225 64.145C59.975 64.145 58.94 64.3225 57.92 64.675C56.9 65.03 55.985 65.575 55.1775 66.3125C54.37 67.05 53.7175 67.9775 53.2225 69.095C52.7275 70.215 52.4775 71.555 52.4775 73.1125C52.4775 74.36 52.64 75.4275 52.965 76.32C53.29 77.215 53.73 77.9925 54.2825 78.6575C54.835 79.325 55.4725 79.8975 56.195 80.38C56.9175 80.8625 57.69 81.3 58.5125 81.6975C59.815 82.35 60.8925 83.0575 61.7425 83.8225C62.5925 84.5875 63.0175 85.6225 63.0175 86.925C63.0175 88.2575 62.6625 89.29 61.955 90.0275C61.2475 90.765 60.355 91.1325 59.2775 91.1325C58.315 91.1325 57.3725 90.905 56.45 90.4525C55.5275 90 54.7425 89.375 54.09 88.5825L51.3275 92.3225C52.1775 93.315 53.31 94.135 54.7275 94.7875C56.145 95.44 57.6875 95.765 59.36 95.765C60.5225 95.765 61.6275 95.5675 62.675 95.17C63.7225 94.7725 64.6375 94.185 65.4175 93.405C66.1975 92.6275 66.82 91.67 67.2875 90.5375C67.755 89.405 67.99 88.1 67.99 86.6275C67.99 85.3525 67.7925 84.2475 67.395 83.3125C66.9975 82.3775 66.4875 81.57 65.865 80.89C65.2425 80.21 64.5475 79.63 63.7825 79.1475C63.0175 78.665 62.2675 78.24 61.53 77.8725C60.2825 77.25 59.2775 76.59 58.5125 75.895C57.7475 75.2025 57.365 74.2175 57.365 72.9425C57.365 72.205 57.47 71.5675 57.685 71.03C57.8975 70.4925 58.1875 70.0525 58.555 69.7125Z" fill="#74889B"/>
<path d="M37.9426 72.135C38.4526 71.1425 39.0901 70.3575 39.8551 69.775C40.6201 69.195 41.5126 68.905 42.5326 68.905C44.3751 68.905 45.8751 69.74 47.0376 71.4125L49.9701 67.8425C49.1476 66.6525 48.0851 65.74 46.7826 65.1C45.4801 64.4625 43.9626 64.145 42.2351 64.145C40.5626 64.145 39.0401 64.535 37.6651 65.3125C36.2901 66.0925 35.1226 67.1825 34.1576 68.585C33.1951 69.99 32.4501 71.66 31.9276 73.6C31.4026 75.5425 31.1426 77.66 31.1426 79.955C31.1426 82.25 31.4051 84.36 31.9276 86.2875C32.4501 88.215 33.1876 89.8775 34.1376 91.28C35.0876 92.685 36.2476 93.7825 37.6226 94.575C38.9976 95.3675 40.5351 95.765 42.2351 95.765C44.1051 95.765 45.6551 95.3975 46.8876 94.66C48.1201 93.9225 49.1326 92.96 49.9251 91.77L46.9926 88.3275C46.5101 89.065 45.9076 89.6875 45.1876 90.1975C44.4676 90.7075 43.6076 90.9625 42.6176 90.9625C41.5701 90.9625 40.6551 90.6725 39.8751 90.09C39.0951 89.51 38.4526 88.725 37.9401 87.7325C37.4276 86.74 37.0476 85.5725 36.7926 84.225C36.5376 82.88 36.4101 81.4575 36.4101 79.955C36.4101 78.425 36.5376 76.9875 36.7926 75.64C37.0501 74.295 37.4326 73.1275 37.9426 72.135Z" fill="#74889B"/>
<path d="M80.0174 89.0501H79.8899L74.8749 64.9102H69.1799L76.5324 95.0002H82.9924L90.4724 64.9102H85.0324L80.0174 89.0501Z" fill="#74889B"/>
</svg>
