<svg width="90" height="120" viewBox="0 0 90 120" fill="none" xmlns="http://www.w3.org/2000/svg">
<path d="M83.4134 52.2949H81.6487V36.6611C81.6487 16.454 65.2196 0 44.9876 0C24.7805 0 8.32644 16.4292 8.32644 36.6611C8.32644 38.5253 9.81774 40.0166 11.6819 40.0166C13.546 40.0166 15.0373 38.5253 15.0373 36.6611C15.0373 20.1574 28.459 6.71085 44.9876 6.71085C61.4913 6.71085 74.9379 20.1326 74.9379 36.6611V52.2949H6.58658C3.00746 52.2949 0.0994263 55.203 0.0994263 58.7821V100.563C0.0994263 111.276 8.82354 120 19.536 120H70.464C81.1765 120 89.9006 111.276 89.9006 100.563V58.7821C89.9006 55.203 86.9926 52.2949 83.4134 52.2949ZM83.1897 100.563C83.1897 107.573 77.4979 113.289 70.464 113.289H19.5609C12.5518 113.289 6.83513 107.597 6.83513 100.563V59.0058H83.1897V100.563Z" fill="#74889B"/>
<path d="M45.0124 99.1963C51.947 99.1963 57.5642 93.5542 57.5642 86.6446C57.5642 79.71 51.9221 74.0928 45.0124 74.0928C38.0779 74.0928 32.4606 79.7349 32.4606 86.6446C32.4606 93.5542 38.0779 99.1963 45.0124 99.1963ZM45.0124 80.7788C48.2436 80.7788 50.8533 83.4134 50.8533 86.6197C50.8533 89.826 48.2436 92.4855 45.0124 92.4855C41.7813 92.4855 39.1715 89.8509 39.1715 86.6446C39.1715 83.4383 41.7813 80.7788 45.0124 80.7788Z" fill="#74889B"/>
</svg>
