<svg width="83" height="92" viewBox="0 0 83 92" fill="none" xmlns="http://www.w3.org/2000/svg">
<path d="M4.25976 33.8196C-4.27888 47.3165 1.14929 67.7987 10.5916 80.2178C15.3049 86.4268 20.0767 92.0001 26.6125 92.0001C26.7357 92.0001 26.8593 91.998 26.9858 91.9935C30.0565 91.8819 32.2755 91.0207 34.421 90.1885C36.8298 89.2534 39.321 88.2867 43.2285 88.2867C46.946 88.2867 49.3183 89.222 51.6125 90.1264C53.8736 91.0174 56.2026 91.9392 59.6439 91.8804C67.0059 91.7555 71.5261 85.7414 75.5141 80.4359C79.6756 74.8963 81.7632 69.5178 82.4675 67.4624L82.496 67.3806C82.6301 67.0154 82.4407 66.6166 82.0563 66.4558C82.0457 66.4513 82.0066 66.4365 81.9957 66.4323C80.6992 65.9494 69.3269 61.3539 69.2074 48.8286C69.0965 38.6525 77.7388 33.2637 79.472 32.287L79.5528 32.2412C79.7405 32.1311 79.8713 31.9564 79.9157 31.7567C79.9601 31.5573 79.9137 31.3498 79.7879 31.1821C73.8226 23.2303 64.6796 22.0319 60.9986 21.8877C60.4644 21.8391 59.9131 21.8147 59.3594 21.8147C55.0359 21.8147 50.8943 23.3021 47.5669 24.4972C45.2701 25.3222 43.2862 26.0346 41.9179 26.0346C40.3803 26.0346 38.3852 25.3134 36.0748 24.4785C32.9852 23.3615 29.4833 22.0958 25.7761 22.0958C25.6877 22.0958 25.6006 22.0967 25.5148 22.0982C16.895 22.2138 8.75012 26.7058 4.25976 33.8196Z" fill="#74889B"/>
<path d="M61.0062 0.00057958C55.7863 0.194232 49.5247 3.12104 45.782 7.11414C42.6014 10.4705 39.4942 16.0665 40.3128 21.7071C40.3641 22.0601 40.6794 22.3324 41.0692 22.3599C41.4215 22.3849 41.7811 22.3976 42.1394 22.3979C47.2434 22.3979 52.7494 19.8258 56.5096 15.6843C60.4671 11.3112 62.4682 5.69885 61.8629 0.671727C61.8152 0.277786 61.4347 -0.014804 61.0062 0.00057958Z" fill="#74889B"/>
</svg>
