<svg width="20" height="20" viewBox="0 0 20 20" fill="none" xmlns="http://www.w3.org/2000/svg">
<g clip-path="url(#clip0)">
<path d="M10.0002 20C15.5231 20 20.0002 15.5228 20.0002 10C20.0002 4.47715 15.5231 0 10.0002 0C4.4774 0 0.000244141 4.47715 0.000244141 10C0.000244141 15.5228 4.4774 20 10.0002 20Z" fill="#FFE073"/>
<path d="M10.0002 20C15.5231 20 20.0002 15.5228 20.0002 10C20.0002 4.47715 15.5231 0 10.0002 0C4.4774 0 0.000244141 4.47715 0.000244141 10C0.000244141 15.5228 4.4774 20 10.0002 20Z" fill="#FFE073"/>
<path d="M10.0002 20C15.5231 20 20.0002 15.5228 20.0002 10C20.0002 4.47715 15.5231 0 10.0002 0C4.4774 0 0.000244141 4.47715 0.000244141 10C0.000244141 15.5228 4.4774 20 10.0002 20Z" fill="#FFE073"/>
<path d="M7.44507 14.511L12.587 19.653C16.8457 18.5173 20.0003 14.6372 20.0003 9.99996C20.0003 9.90532 20.0003 9.81069 20.0003 9.71605L15.9624 5.99365L7.44507 14.511Z" fill="#FBD240"/>
<path d="M10.2526 12.2399C10.6943 12.6816 10.6943 13.4387 10.2526 13.8803L9.33779 14.7951C8.89615 15.2368 8.13905 15.2368 7.69741 14.7951L3.69109 10.7573C3.24945 10.3156 3.24945 9.55855 3.69109 9.11691L4.60592 8.20208C5.04756 7.76044 5.80466 7.76044 6.2463 8.20208L10.2526 12.2399Z" fill="white"/>
<path d="M13.7542 5.26824C14.1958 4.8266 14.9529 4.8266 15.3946 5.26824L16.3094 6.18307C16.7511 6.62471 16.7511 7.38181 16.3094 7.82345L9.36935 14.732C8.92771 15.1736 8.17061 15.1736 7.72897 14.732L6.81414 13.8171C6.3725 13.3755 6.3725 12.6184 6.81414 12.1768L13.7542 5.26824Z" fill="white"/>
</g>
<defs>
<clipPath id="clip0">
<rect width="20" height="20" fill="white" transform="translate(0.000244141)"/>
</clipPath>
</defs>
</svg>
